# xmcd
# 
# Track frame offsets:
#     150
#     30025
#     60267
#     82412
#     96687
#     112432
#     147692
#     163952
#     189545
#     209472
#     219795
#     233967
#     247747
#     266122
#     282645
#     304540
# 
# Disc length: 4252
# 
# Revision: 51
# Processed by: cddbd v1.5.2PL0 Copyright (c) Steve Scherf et al.
# Submitted via: fre:ac v1.0.31
# 
DISCID=f7109a10
DTITLE=Metallica - Garage Inc. [CD2)
DYEAR=1998
DGENRE=Metal
TTITLE0=Helpless
TTITLE1=The Small Hours
TTITLE2=The Wait
TTITLE3=Crash Course In Brain Surgery
TTITLE4=Last Caress/Green Hell
TTITLE5=Am I Evil?
TTITLE6=Blitzkrieg
TTITLE7=Breadfan
TTITLE8=The Prince
TTITLE9=Stone Cold Crazy
TTITLE10=So What
TTITLE11=Killing Time
TTITLE12=Overkill
TTITLE13=Damage Case
TTITLE14=Stone Dead Forever
TTITLE15=Too Late Too Late
EXTD=
EXTT0=
EXTT1=
EXTT2=
EXTT3=
EXTT4=
EXTT5=
EXTT6=
EXTT7=
EXTT8=
EXTT9=
EXTT10=
EXTT11=
EXTT12=
EXTT13=
EXTT14=
EXTT15=
PLAYORDER=
